<?xml version="1.0" encoding="UTF-8" standalone="no"?>
<svg
   width="90"
   height="90"
   viewBox="0 0 90 90"
   fill="none"
   version="1.1"
   id="svg8"
   sodipodi:docname="opensea_logo.svg"
   inkscape:version="1.1 (c68e22c387, 2021-05-23)"
   xmlns:inkscape="http://www.inkscape.org/namespaces/inkscape"
   xmlns:sodipodi="http://sodipodi.sourceforge.net/DTD/sodipodi-0.dtd"
   xmlns="http://www.w3.org/2000/svg"
   xmlns:svg="http://www.w3.org/2000/svg">
  <defs
     id="defs12" />
  <sodipodi:namedview
     id="namedview10"
     pagecolor="#ffffff"
     bordercolor="#666666"
     borderopacity="1.0"
     inkscape:pageshadow="2"
     inkscape:pageopacity="0.0"
     inkscape:pagecheckerboard="0"
     showgrid="false"
     inkscape:zoom="9.0222222"
     inkscape:cx="43.392857"
     inkscape:cy="45.166256"
     inkscape:window-width="2400"
     inkscape:window-height="1271"
     inkscape:window-x="4791"
     inkscape:window-y="-9"
     inkscape:window-maximized="1"
     inkscape:current-layer="svg8" />
  <path
     d="m 84.179904,45.000001 c 0,21.759653 -17.641925,39.401578 -39.401578,39.401578 -21.759653,0 -39.401579,-17.641925 -39.401579,-39.401578 0,-21.759653 17.641926,-39.4015792 39.401579,-39.4015792 21.764206,0 39.401578,17.6419262 39.401578,39.4015792 z"
     fill="#2081E2"
     id="path2"
     style="fill:none;stroke:#000000;stroke-width:7.00473;stroke-miterlimit:4;stroke-dasharray:none;stroke-opacity:1" />
  <path
     d="M 24.815823,46.323893 24.985863,46.056752 35.23579,30.02206 c 0.149725,-0.234833 0.501976,-0.210492 0.615276,0.04447 1.712393,3.837714 3.189952,8.610472 2.49771,11.581787 -0.295512,1.2225 -1.105082,2.878242 -2.01596,4.408425 -0.117416,0.222663 -0.246916,0.441298 -0.384559,0.65179 -0.0648,0.0971 -0.174068,0.153841 -0.291484,0.153841 H 25.115362 c -0.28334,0 -0.449266,-0.307683 -0.299539,-0.538488 z"
     fill="white"
     id="path4"
     style="fill:#000000;fill-opacity:1;stroke-width:0.875591" />
  <path
     d="m 70.503178,49.303442 v 2.538161 c 0,0.145699 -0.08905,0.275286 -0.218547,0.331937 -0.79346,0.340079 -3.509806,1.58692 -4.63923,3.157555 -2.882269,4.011693 -5.084467,9.74795 -10.007037,9.74795 H 35.102173 c -7.278609,0 -13.176762,-5.918379 -13.176762,-13.221243 v -0.234833 c 0,-0.194294 0.157868,-0.352163 0.35225,-0.352163 h 11.448085 c 0.22669,0 0.392702,0.210492 0.372475,0.433154 -0.08099,0.744865 0.05666,1.505929 0.408814,2.19817 0.680159,1.38037 2.088896,2.242652 3.611023,2.242652 h 5.667348 v -4.424623 h -5.602642 c -0.287368,0 -0.457408,-0.331937 -0.291396,-0.56677 0.06067,-0.09308 0.1295,-0.190266 0.202349,-0.299539 0.530345,-0.752921 1.287292,-1.922884 2.040301,-3.254746 0.514059,-0.898618 1.012008,-1.858091 1.412766,-2.821503 0.08099,-0.174068 0.145785,-0.352162 0.210491,-0.526318 0.109365,-0.307595 0.222663,-0.595052 0.303655,-0.882419 0.08091,-0.242889 0.145698,-0.49795 0.210492,-0.73681 0.190266,-0.817714 0.271258,-1.684024 0.271258,-2.58273 0,-0.352163 -0.0162,-0.720524 -0.0486,-1.072774 -0.0162,-0.384559 -0.0648,-0.769118 -0.113388,-1.153678 -0.0324,-0.340079 -0.09308,-0.676044 -0.157869,-1.028207 -0.08099,-0.514145 -0.194294,-1.024177 -0.323882,-1.538324 l -0.04448,-0.194293 C 41.757278,34.709886 41.676368,34.373833 41.562979,34.021671 41.243214,32.9165 40.874766,31.8397 40.486178,30.831718 c -0.14167,-0.400757 -0.303654,-0.785316 -0.465551,-1.169876 -0.238861,-0.578941 -0.48175,-1.10517 -0.704326,-1.603118 -0.113388,-0.226691 -0.210579,-0.433155 -0.307682,-0.643647 -0.109276,-0.238861 -0.222662,-0.477636 -0.335965,-0.704414 -0.08099,-0.174066 -0.174154,-0.335964 -0.23886,-0.49786 l -0.692243,-1.279239 c -0.09719,-0.174066 0.0648,-0.38053 0.254973,-0.327907 l 4.331546,1.173992 h 0.01217 c 0.0081,0 0.01217,0.0041 0.0162,0.0041 l 0.570797,0.15787 0.627449,0.178095 0.230718,0.0648 v -2.574586 c 0,-1.242814 0.995897,-2.250794 2.226539,-2.250794 0.615278,0 1.173904,0.250945 1.574663,0.659845 0.400757,0.4089 0.65179,0.967529 0.65179,1.590949 v 3.821427 l 0.461435,0.1295 c 0.03652,0.01216 0.07294,0.02837 0.105333,0.05262 0.113301,0.08502 0.275198,0.210579 0.481663,0.364334 0.161984,0.129586 0.336051,0.287456 0.546543,0.449351 0.416956,0.336053 0.914816,0.769208 1.46136,1.267068 0.145699,0.12556 0.287458,0.25506 0.416957,0.384647 0.704412,0.65573 1.493757,1.424936 2.246766,2.275047 0.210491,0.238774 0.416956,0.481663 0.627448,0.736722 0.210492,0.259088 0.433155,0.514147 0.627448,0.769207 0.25506,0.339992 0.530258,0.692155 0.769119,1.060603 0.113389,0.174067 0.242889,0.352162 0.352249,0.526229 0.307595,0.465552 0.578854,0.947302 0.837942,1.428964 0.109275,0.222663 0.222662,0.465552 0.319765,0.704412 0.287456,0.643647 0.514146,1.299465 0.659845,1.955282 0.04457,0.141671 0.07696,0.295512 0.09316,0.433155 v 0.03231 c 0.04851,0.194383 0.06471,0.400846 0.08091,0.611338 0.0648,0.671929 0.0324,1.343944 -0.113302,2.019988 -0.06076,0.287456 -0.141671,0.558626 -0.238861,0.846084 -0.09719,0.275285 -0.194293,0.562654 -0.319765,0.833911 -0.242889,0.562655 -0.530346,1.125397 -0.870425,1.651627 -0.109275,0.194293 -0.238774,0.400759 -0.368361,0.595052 -0.141671,0.206465 -0.287369,0.400845 -0.416956,0.591111 -0.178095,0.242888 -0.368362,0.497861 -0.562655,0.724551 -0.174068,0.238861 -0.35225,0.477723 -0.546543,0.688215 -0.271172,0.319765 -0.530259,0.62342 -0.801516,0.914904 -0.161897,0.190266 -0.335964,0.38456 -0.514147,0.558626 -0.174068,0.194294 -0.352162,0.368361 -0.51406,0.530259 -0.271257,0.271258 -0.497948,0.481749 -0.688213,0.655818 l -0.445325,0.4089 c -0.06471,0.05665 -0.149727,0.08905 -0.238775,0.08905 h -3.449038 v 4.424622 h 4.339602 c 0.971554,0 1.894515,-0.344107 2.63938,-0.975584 0.25506,-0.222662 1.368286,-1.186162 2.683948,-2.639381 0.04448,-0.0486 0.101223,-0.08501 0.165925,-0.101222 l 11.986572,-3.465238 c 0.222663,-0.0648 0.449354,0.105244 0.449354,0.340081 z"
     fill="white"
     id="path6"
     style="fill:#000000;fill-opacity:1;stroke-width:0.875591" />
</svg>
